<?xml version="1.0" standalone="no"?>
<!DOCTYPE svg PUBLIC "-//W3C//DTD SVG 20010904//EN"
 "http://www.w3.org/TR/2001/REC-SVG-20010904/DTD/svg10.dtd">
<svg version="1.0" xmlns="http://www.w3.org/2000/svg"
 width="192.000000pt" height="192.000000pt" viewBox="0 0 192.000000 192.000000"
 preserveAspectRatio="xMidYMid meet">

<g transform="translate(0.000000,192.000000) scale(0.100000,-0.100000)"
fill="#000000" stroke="none">
<path d="M125 1905 c-50 -18 -100 -71 -114 -122 -15 -54 -15 -1593 0 -1648 14
-51 73 -110 124 -124 56 -15 1594 -15 1650 0 51 14 110 73 124 124 15 56 15
1594 0 1650 -14 51 -73 110 -124 124 -28 7 -283 11 -830 11 -655 -1 -797 -3
-830 -15z m583 -612 c2 -35 -1 -63 -6 -63 -4 0 -16 16 -25 35 -22 46 -49 55
-158 55 l-89 0 0 -115 0 -115 70 0 c76 0 110 19 110 60 0 11 5 20 10 20 6 0
10 -40 10 -100 0 -60 -4 -100 -10 -100 -5 0 -10 11 -10 24 0 39 -35 56 -112
56 l-68 0 0 -116 c0 -124 8 -154 43 -154 12 0 29 -5 37 -10 10 -7 -28 -10
-118 -10 -86 0 -131 4 -127 10 3 6 16 10 29 10 44 0 46 10 46 271 0 136 -3
254 -6 263 -3 8 -21 18 -40 22 -19 3 -34 10 -34 15 0 6 94 8 223 7 l222 -3 3
-62z m954 5 c6 -69 1 -83 -16 -53 -6 10 -23 32 -38 47 -26 27 -30 28 -127 28
l-101 0 0 -115 0 -115 74 0 c69 0 76 2 95 26 12 15 21 33 21 40 0 8 5 14 10
14 6 0 10 -40 10 -100 0 -60 -4 -100 -10 -100 -5 0 -10 9 -10 20 0 42 -34 60
-115 60 l-75 0 0 -107 c0 -120 11 -156 50 -161 14 -2 29 -8 35 -13 5 -5 -43
-9 -124 -9 -85 0 -130 4 -126 10 3 6 16 10 28 10 52 1 52 0 52 275 0 242 -1
257 -19 271 -11 8 -30 14 -43 14 -13 0 -23 5 -23 10 0 6 81 10 224 10 l224 0
4 -62z m-722 -143 c0 -3 -11 -10 -25 -15 -14 -5 -25 -16 -25 -24 0 -15 110
-249 115 -244 9 9 95 235 95 249 0 9 -10 21 -22 27 -19 9 -11 11 45 11 37 1
67 -1 67 -4 0 -3 -11 -16 -24 -28 -16 -14 -57 -103 -115 -247 -50 -124 -99
-236 -109 -250 -25 -34 -80 -70 -106 -70 -30 0 -66 27 -66 49 0 32 25 44 78
36 56 -7 69 2 101 79 l21 49 -87 176 c-61 122 -95 179 -110 186 -43 18 -23 25
72 25 52 0 95 -2 95 -5z"/>
</g>
</svg>
